<mxfile host="app.diagrams.net" agent="Mozilla/5.0 (Windows NT 10.0; Win64; x64) AppleWebKit/537.36 (KHTML, like Gecko) Chrome/138.0.0.0 Safari/537.36" version="28.0.7">
  <diagram name="AU eRequesting Actor Interactions" id="Eb6hGs_AQFKjTILKwLfr">
    <mxGraphModel dx="1501" dy="782" grid="1" gridSize="10" guides="1" tooltips="1" connect="1" arrows="1" fold="1" page="1" pageScale="1" pageWidth="827" pageHeight="1169" math="0" shadow="0">
      <root>
        <mxCell id="0" />
        <mxCell id="1" parent="0" />
        <mxCell id="mmBfstYsPMJGoVDrC89e-1" value="AU eRequesting Placer&lt;br&gt;(client)" style="rounded=1;whiteSpace=wrap;html=1;fillColor=#1ba1e2;strokeColor=#006EAF;fontColor=#ffffff;labelBackgroundColor=none;" vertex="1" parent="1">
          <mxGeometry x="19" y="40" width="130" height="60" as="geometry" />
        </mxCell>
        <mxCell id="mmBfstYsPMJGoVDrC89e-2" value="AU eRequesting Filler&lt;br&gt;(client)" style="rounded=1;whiteSpace=wrap;html=1;fillColor=#1ba1e2;strokeColor=#006EAF;fontColor=#ffffff;" vertex="1" parent="1">
          <mxGeometry x="679" y="40" width="130" height="60" as="geometry" />
        </mxCell>
        <mxCell id="mmBfstYsPMJGoVDrC89e-3" value="" style="endArrow=none;html=1;rounded=0;exitX=1;exitY=0.5;exitDx=0;exitDy=0;entryX=0;entryY=0.25;entryDx=0;entryDy=0;startFill=0;" edge="1" parent="1" source="mmBfstYsPMJGoVDrC89e-1" target="mmBfstYsPMJGoVDrC89e-8">
          <mxGeometry width="50" height="50" relative="1" as="geometry">
            <mxPoint x="339" y="170" as="sourcePoint" />
            <mxPoint x="389" y="120" as="targetPoint" />
          </mxGeometry>
        </mxCell>
        <mxCell id="mmBfstYsPMJGoVDrC89e-4" value="&lt;div&gt;create/update/search&lt;/div&gt;" style="edgeLabel;html=1;align=left;verticalAlign=middle;resizable=0;points=[];fillOpacity=100;labelBackgroundColor=none;" vertex="1" connectable="0" parent="mmBfstYsPMJGoVDrC89e-3">
          <mxGeometry x="-0.0667" relative="1" as="geometry">
            <mxPoint x="-83" y="-40" as="offset" />
          </mxGeometry>
        </mxCell>
        <mxCell id="mmBfstYsPMJGoVDrC89e-5" value="" style="endArrow=none;html=1;rounded=0;exitX=0;exitY=0.5;exitDx=0;exitDy=0;entryX=1;entryY=0.25;entryDx=0;entryDy=0;startFill=0;" edge="1" parent="1" source="mmBfstYsPMJGoVDrC89e-2" target="mmBfstYsPMJGoVDrC89e-8">
          <mxGeometry width="50" height="50" relative="1" as="geometry">
            <mxPoint x="199" y="180" as="sourcePoint" />
            <mxPoint x="249" y="130" as="targetPoint" />
          </mxGeometry>
        </mxCell>
        <mxCell id="mmBfstYsPMJGoVDrC89e-6" value="&lt;div&gt;&lt;div style=&quot;text-align: left;&quot;&gt;&lt;span style=&quot;background-color: transparent; color: light-dark(rgb(0, 0, 0), rgb(255, 255, 255));&quot;&gt;search/read&lt;/span&gt;&lt;span style=&quot;background-color: transparent; color: light-dark(rgb(0, 0, 0), rgb(255, 255, 255));&quot;&gt;/update&lt;/span&gt;&lt;/div&gt;&lt;/div&gt;" style="edgeLabel;html=1;align=center;verticalAlign=middle;resizable=0;points=[];fillOpacity=100;labelBackgroundColor=none;" vertex="1" connectable="0" parent="mmBfstYsPMJGoVDrC89e-5">
          <mxGeometry x="0.1111" y="-1" relative="1" as="geometry">
            <mxPoint x="52" y="-45" as="offset" />
          </mxGeometry>
        </mxCell>
        <mxCell id="mmBfstYsPMJGoVDrC89e-7" value="AU eRequesting Patient&lt;br&gt;(client)" style="rounded=1;whiteSpace=wrap;html=1;fillColor=#1ba1e2;strokeColor=#006EAF;fontColor=#ffffff;" vertex="1" parent="1">
          <mxGeometry x="19" y="190" width="130" height="60" as="geometry" />
        </mxCell>
        <mxCell id="mmBfstYsPMJGoVDrC89e-8" value="AU eRequesting Server" style="rounded=1;whiteSpace=wrap;html=1;fillColor=#1ba1e2;strokeColor=#006EAF;fontColor=#ffffff;" vertex="1" parent="1">
          <mxGeometry x="348" y="120" width="130" height="60" as="geometry" />
        </mxCell>
        <mxCell id="mmBfstYsPMJGoVDrC89e-9" value="" style="endArrow=none;html=1;rounded=0;exitX=1;exitY=0.5;exitDx=0;exitDy=0;entryX=0;entryY=0.75;entryDx=0;entryDy=0;startFill=0;" edge="1" parent="1" source="mmBfstYsPMJGoVDrC89e-7" target="mmBfstYsPMJGoVDrC89e-8">
          <mxGeometry width="50" height="50" relative="1" as="geometry">
            <mxPoint x="159" y="80" as="sourcePoint" />
            <mxPoint x="329" y="170" as="targetPoint" />
          </mxGeometry>
        </mxCell>
        <mxCell id="mmBfstYsPMJGoVDrC89e-10" value="&lt;span style=&quot;text-align: left;&quot;&gt;search/read&lt;/span&gt;" style="edgeLabel;html=1;align=center;verticalAlign=middle;resizable=0;points=[];fillOpacity=100;labelBackgroundColor=none;" vertex="1" connectable="0" parent="mmBfstYsPMJGoVDrC89e-9">
          <mxGeometry x="-0.0667" relative="1" as="geometry">
            <mxPoint x="-53" y="36" as="offset" />
          </mxGeometry>
        </mxCell>
      </root>
    </mxGraphModel>
  </diagram>
</mxfile>
